<svg width="32" height="33" viewBox="0 0 32 33" fill="none" xmlns="http://www.w3.org/2000/svg">
<g clip-path="url(#clip0_44_860)">
<path d="M6.52062 21.9853C9.67686 25.7582 13.4763 28.7288 17.8128 30.8307C19.4638 31.6132 21.6719 32.5415 24.1319 32.7006C24.2844 32.7072 24.4303 32.7139 24.5828 32.7139C26.2338 32.7139 27.56 32.1436 28.6408 30.97C28.6474 30.9633 28.6607 30.9501 28.6673 30.9368C29.0519 30.4727 29.4895 30.0549 29.9471 29.6107C30.2587 29.3123 30.577 29.0006 30.882 28.6824C32.2943 27.2103 32.2943 25.3405 30.8687 23.9149L26.8837 19.9298C26.2073 19.2269 25.3984 18.8556 24.5496 18.8556C23.7009 18.8556 22.8853 19.2269 22.1891 19.9232L19.8153 22.297C19.5965 22.171 19.371 22.0583 19.1588 21.9522C18.8936 21.8195 18.6483 21.6936 18.4294 21.5543C16.2678 20.1817 14.3051 18.3914 12.4286 16.0906C11.4804 14.8904 10.8439 13.8825 10.3996 12.8548C11.0229 12.2912 11.6064 11.701 12.17 11.1241C12.3689 10.9186 12.5745 10.713 12.7801 10.5075C13.4962 9.79136 13.8808 8.96252 13.8808 8.12041C13.8808 7.27831 13.5028 6.44947 12.7801 5.73334L10.8041 3.75738C10.572 3.52531 10.3532 3.29986 10.1278 3.06778C9.69012 2.61689 9.2326 2.15274 8.78171 1.735C8.09874 1.0653 7.29642 0.713867 6.44768 0.713867C5.60558 0.713867 4.79663 1.0653 4.08714 1.74163L1.60724 4.22153C0.705454 5.12332 0.194887 6.21739 0.0887946 7.48386C-0.0371897 9.06861 0.254563 10.7528 1.01047 12.7885C2.17085 15.9381 3.92137 18.8622 6.52062 21.9853ZM1.7067 7.62311C1.78627 6.74122 2.12443 6.00521 2.76099 5.36865L5.22763 2.90201C5.61221 2.53069 6.03658 2.3384 6.44768 2.3384C6.85216 2.3384 7.26327 2.53069 7.64122 2.91528C8.08548 3.32638 8.50322 3.75738 8.95411 4.2149C9.17955 4.44698 9.41163 4.67906 9.64371 4.91776L11.6197 6.89373C12.0308 7.30483 12.243 7.72257 12.243 8.13368C12.243 8.54478 12.0308 8.96252 11.6197 9.37363C11.4141 9.57918 11.2086 9.79136 11.003 9.99692C10.3864 10.6202 9.80948 11.2103 9.17292 11.774L9.13977 11.8071C8.58942 12.3575 8.67562 12.8813 8.80823 13.2791C8.81486 13.299 8.82149 13.3123 8.82812 13.3322C9.33869 14.5589 10.0482 15.7259 11.1555 17.1183C13.1447 19.5717 15.2401 21.4747 17.5476 22.9401C17.8327 23.1258 18.1377 23.2717 18.4228 23.4176C18.688 23.5502 18.9334 23.6762 19.1522 23.8154C19.1787 23.8287 19.1986 23.8419 19.2251 23.8552C19.444 23.9679 19.6561 24.021 19.8683 24.021C20.3988 24.021 20.7436 23.6828 20.8563 23.5701L23.3362 21.0902C23.7208 20.7056 24.1385 20.5 24.5496 20.5C25.0536 20.5 25.4647 20.8117 25.7233 21.0902L29.7216 25.0819C30.5173 25.8776 30.5107 26.7396 29.7017 27.5817C29.4232 27.8801 29.1315 28.1652 28.8198 28.4636C28.3557 28.9144 27.8716 29.3786 27.434 29.9024C26.6715 30.7246 25.7631 31.1092 24.5894 31.1092C24.4767 31.1092 24.3573 31.1026 24.2446 31.096C22.0697 30.9567 20.0474 30.108 18.5289 29.3852C14.4046 27.3894 10.7842 24.558 7.78047 20.9642C5.3072 17.987 3.64288 15.2153 2.54217 12.2447C1.85921 10.4213 1.60061 8.95589 1.7067 7.62311Z" fill="#191919"/>
</g>
<defs>
<clipPath id="clip0_44_860">
<rect width="32" height="32" fill="white" transform="translate(0 0.713867)"/>
</clipPath>
</defs>
</svg>
