<svg width="48" height="48" viewBox="0 0 48 48" fill="none" xmlns="http://www.w3.org/2000/svg">
<path d="M13 6C19.388 6 24 11.274 24 19.084C23.96 30.43 15.43 38.452 3.124 39.992C1.984 40.136 1.544 38.552 2.594 38.086C7.314 35.986 9.7 33.322 10.008 30.686C10.238 28.716 9.168 26.99 7.822 26.666C4.336 25.828 2 21.486 2 17C2 14.0826 3.15892 11.2847 5.22182 9.22183C7.28472 7.15893 10.0826 6 13 6ZM37 6C43.388 6 48 11.274 48 19.084C47.96 30.43 39.43 38.452 27.124 39.992C25.984 40.136 25.544 38.552 26.594 38.086C31.314 35.986 33.7 33.322 34.008 30.686C34.238 28.716 33.168 26.99 31.822 26.666C28.336 25.828 26 21.486 26 17C26 14.0826 27.1589 11.2847 29.2218 9.22183C31.2847 7.15893 34.0826 6 37 6Z" fill="#191919" fill-opacity="0.3"/>
</svg>
